<?xml version="1.0" encoding="utf-8"?>
<!-- Generator: Adobe Illustrator 22.1.0, SVG Export Plug-In . SVG Version: 6.00 Build 0)  -->
<svg version="1.1" id="Layer_1" xmlns="http://www.w3.org/2000/svg" xmlns:xlink="http://www.w3.org/1999/xlink" x="0px" y="0px"
	 viewBox="0 0 250 250" style="enable-background:new 0 0 250 250;" xml:space="preserve">
<style type="text/css">
	.st0{fill:#FFFFFF;}
</style>
<path class="st0" d="M181.3,12.5c0,0-18.5,18-38.5,25.2C-5.5,91.3,57,195.9,59.1,196.2c0,0,8.3-14.5,19.6-22.8
	C150,121,164.5,60.7,164.5,60.7s-16,72.6-79.4,117.8c-14,10-23.5,34.5-27.5,59.1c0,0,9.9-4,14.2-5.1c1.7-10.9,5.1-21.3,11-30.6
	c88.6,10.6,117.7-60.9,121.5-85.8C213.1,57.3,181.3,12.5,181.3,12.5"/>
</svg>
