<?xml version="1.0" encoding="utf-8"?>
<!-- Generator: Adobe Illustrator 16.0.5, SVG Export Plug-In . SVG Version: 6.00 Build 0)  -->
<!DOCTYPE svg PUBLIC "-//W3C//DTD SVG 1.1//EN" "http://www.w3.org/Graphics/SVG/1.1/DTD/svg11.dtd">
<svg version="1.1" id="Layer_1" xmlns="http://www.w3.org/2000/svg" xmlns:xlink="http://www.w3.org/1999/xlink" x="0px" y="0px"
	 width="640px" height="480px" viewBox="0 0 640 480" enable-background="new 0 0 640 480" xml:space="preserve">
<path fill="#266D4A" d="M428.096,24c0,0-35.521,34.56-73.921,48.384C69.44,175.296,189.44,376.128,193.472,376.703
	c0,0,15.936-27.84,37.632-43.775C368,232.32,395.84,116.544,395.84,116.544S365.12,255.936,243.392,342.72
	c-26.88,19.2-45.12,66.24-52.801,113.472c0,0,19.009-7.68,27.265-9.792c3.264-20.928,9.792-40.896,21.12-58.752
	C409.088,408,464.961,270.72,472.257,222.912C489.152,110.016,428.096,24,428.096,24"/>
<rect x="-2447.296" y="-5301.888" fill="none" width="9136.128" height="10569.983"/>
<rect x="-2447.296" y="-5301.888" fill="none" width="9136.128" height="10569.983"/>
<rect x="-2447.296" y="-5301.888" fill="none" width="9136.128" height="10569.983"/>
<g>
	<g>
		<rect id="SVGID_6971_" x="-1076.8" y="-389.184" fill="#EAEAEA" width="538.944" height="92.16"/>
	</g>
	<g>
		<defs>
			<rect id="SVGID_1_" x="-1076.8" y="-389.184" width="538.944" height="92.16"/>
		</defs>
		<clipPath id="SVGID_2_">
			<use xlink:href="#SVGID_1_"  overflow="visible"/>
		</clipPath>
		<g clip-path="url(#SVGID_2_)">
			<g>
				<rect id="SVGID_6973_" x="-2671.552" y="-649.92" fill="#EAEAEA" width="3995.137" height="1427.903"/>
			</g>
		</g>
	</g>
</g>
<g>
	<g>
		<path id="SVGID_6979_" fill="#003D59" d="M-1034.752-475.969c0,0-5.376,5.377-11.328,7.488
			c-43.775,15.937-25.344,46.656-24.768,46.849c0,0,2.496-4.225,5.76-6.721c21.12-15.552,25.344-33.216,25.344-33.216
			s-4.8,21.504-23.424,34.752c-4.224,2.88-6.912,10.176-8.063,17.472c0,0,2.88-1.151,4.224-1.535
			c0.576-3.265,1.536-6.336,3.264-9.024c26.112,3.072,34.752-18.048,35.904-25.344
			C-1025.344-462.72-1034.752-475.969-1034.752-475.969"/>
	</g>
	<g>
		<defs>
			<path id="SVGID_3_" d="M-1034.752-475.969c0,0-5.376,5.377-11.328,7.488c-43.775,15.937-25.344,46.656-24.768,46.849
				c0,0,2.496-4.225,5.76-6.721c21.12-15.552,25.344-33.216,25.344-33.216s-4.8,21.504-23.424,34.752
				c-4.224,2.88-6.912,10.176-8.063,17.472c0,0,2.88-1.151,4.224-1.535c0.576-3.265,1.536-6.336,3.264-9.024
				c26.112,3.072,34.752-18.048,35.904-25.344C-1025.344-462.72-1034.752-475.969-1034.752-475.969"/>
		</defs>
		<clipPath id="SVGID_4_">
			<use xlink:href="#SVGID_3_"  overflow="visible"/>
		</clipPath>
		<g clip-path="url(#SVGID_4_)">
			<g>
				<rect id="SVGID_6981_" x="-1532.8" y="-1515.84" fill="#003D59" width="1761.6" height="2038.079"/>
			</g>
		</g>
	</g>
</g>
<g>
	<g>
		<rect id="SVGID_6983_" x="-1076.8" y="116.928" fill="#EAEAEA" width="537.6" height="92.16"/>
	</g>
	<g>
		<defs>
			<rect id="SVGID_5_" x="-1076.8" y="116.928" width="537.6" height="92.16"/>
		</defs>
		<clipPath id="SVGID_6_">
			<use xlink:href="#SVGID_5_"  overflow="visible"/>
		</clipPath>
		<g clip-path="url(#SVGID_6_)">
			<g>
				<rect id="SVGID_6985_" x="-2978.367" y="-143.808" fill="#EAEAEA" width="4764.096" height="1427.904"/>
			</g>
		</g>
	</g>
</g>
<g>
	<g>
		<g>
			<defs>
				<rect id="SVGID_7_" x="-1076.8" y="116.928" width="307.393" height="92.16"/>
			</defs>
			<clipPath id="SVGID_8_">
				<use xlink:href="#SVGID_7_"  overflow="visible"/>
			</clipPath>
		</g>
	</g>
	<g>
		<g>
			<rect id="SVGID_6991_" x="-1076.8" y="116.928" fill="#008080" width="307.393" height="92.16"/>
		</g>
		<g>
			<defs>
				<rect id="SVGID_9_" x="-1076.8" y="116.928" width="307.393" height="92.16"/>
			</defs>
			<clipPath id="SVGID_10_">
				<use xlink:href="#SVGID_9_"  overflow="visible"/>
			</clipPath>
			<g clip-path="url(#SVGID_10_)">
				<g>
					<rect id="SVGID_6993_" x="-2536.96" y="-143.808" fill="#008080" width="3658.368" height="1427.904"/>
				</g>
			</g>
		</g>
	</g>
	<g>
		<g>
			<defs>
				<rect id="SVGID_11_" x="-1076.8" y="116.928" width="307.393" height="92.16"/>
			</defs>
			<clipPath id="SVGID_12_">
				<use xlink:href="#SVGID_11_"  overflow="visible"/>
			</clipPath>
		</g>
	</g>
</g>
<rect x="-3057.856" y="-5301.888" fill="none" width="9136.127" height="10569.983"/>
<rect x="-3057.856" y="-5301.888" fill="none" width="9136.127" height="10569.983"/>
<rect x="-3057.856" y="-5301.888" fill="none" width="9136.127" height="10569.983"/>
<g>
	<g>
		<g>
			<g>
				<defs>
					<path id="SVGID_13_" d="M1695.488,133.823c7.488,0,13.44-5.567,14.208-12.672c6.912-1.151,12.288-6.72,12.672-13.823
						c0.576,0.384,1.345,0.575,1.92,0.96c7.872,2.88,16.513-1.152,19.393-8.832c1.536-4.225,1.151-8.832-0.96-12.48
						c3.647-1.536,6.527-4.416,8.063-8.448c0.96-2.496,1.152-4.8,0.769-7.296c5.952,1.92,12.479-1.151,14.784-7.104
						c2.304-6.145-0.96-12.864-7.104-14.977c-4.607-1.728-9.6-0.384-12.864,2.88c-1.151-1.151-2.688-1.92-4.224-2.495
						c-6.912-2.496-14.784,0.96-17.28,7.872c-0.768,2.111-0.96,4.416-0.768,6.527c-1.152-0.768-2.305-1.344-3.648-1.92
						c-7.872-2.88-16.512,1.152-19.392,8.832c-1.536,4.032-1.152,8.064,0.576,11.712c-6.336,1.152-11.137,6.528-11.137,13.057
						c0,2.688,0.769,4.991,2.112,7.104c-0.384,1.152-0.384,2.304-0.576,3.456c-6.336,1.344-11.136,6.912-11.136,13.632
						C1681.28,127.488,1687.616,133.823,1695.488,133.823"/>
				</defs>
				<clipPath id="SVGID_14_">
					<use xlink:href="#SVGID_13_"  overflow="visible"/>
				</clipPath>
			</g>
		</g>
		<g>
			<g>
				<path id="SVGID_7253_" fill="#D0D2D3" d="M1409.024,105.792c7.104,0,13.056-4.032,16.32-9.601
					c1.728,1.536,3.84,2.88,6.144,3.648c10.176,3.647,21.313-1.344,24.96-11.328c1.92-4.992,1.536-10.176-0.575-14.592
					c1.728-1.92,3.264-4.032,4.224-6.528c1.151-3.264,1.344-6.528,0.96-9.792c3.456-2.112,6.528-5.376,8.064-9.6
					c3.647-9.984-1.345-20.929-11.521-24.576c-9.6-3.456-19.968,0.96-24.192,9.792c-2.88,1.728-5.184,4.224-6.527,7.296
					c-1.92-0.768-4.032-1.152-6.336-1.152c-9.601,0-17.473,7.681-17.473,17.088c0,3.456,0.96,6.528,2.688,9.217
					c-0.384,1.344-0.576,2.88-0.576,4.416c-8.256,1.728-14.399,9.023-14.399,17.664
					C1390.593,97.536,1398.848,105.792,1409.024,105.792"/>
			</g>
			<g>
				<defs>
					<path id="SVGID_15_" d="M1409.024,105.792c7.104,0,13.056-4.032,16.32-9.601c1.728,1.536,3.84,2.88,6.144,3.648
						c10.176,3.647,21.313-1.344,24.96-11.328c1.92-4.992,1.536-10.176-0.575-14.592c1.728-1.92,3.264-4.032,4.224-6.528
						c1.151-3.264,1.344-6.528,0.96-9.792c3.456-2.112,6.528-5.376,8.064-9.6c3.647-9.984-1.345-20.929-11.521-24.576
						c-9.6-3.456-19.968,0.96-24.192,9.792c-2.88,1.728-5.184,4.224-6.527,7.296c-1.92-0.768-4.032-1.152-6.336-1.152
						c-9.601,0-17.473,7.681-17.473,17.088c0,3.456,0.96,6.528,2.688,9.217c-0.384,1.344-0.576,2.88-0.576,4.416
						c-8.256,1.728-14.399,9.023-14.399,17.664C1390.593,97.536,1398.848,105.792,1409.024,105.792"/>
				</defs>
				<clipPath id="SVGID_16_">
					<use xlink:href="#SVGID_15_"  overflow="visible"/>
				</clipPath>
				<g clip-path="url(#SVGID_16_)">
					<g>
						<rect id="SVGID_7255_" x="-1281.28" y="-3282.816" fill="#D0D2D3" width="7413.119" height="5539.392"/>
					</g>
				</g>
			</g>
		</g>
	</g>
	<g>
		<g>
			<g>
				<path id="SVGID_7257_" fill="#EAEAEA" d="M2073.728,214.08c5.76,0,10.752-3.265,13.248-7.872
					c1.344,1.344,3.072,2.304,4.992,3.071c8.256,3.072,17.279-1.151,20.352-9.216c1.536-4.032,1.152-8.256-0.384-11.903
					c1.536-1.536,2.688-3.265,3.456-5.376c0.96-2.688,1.152-5.376,0.768-7.872c2.881-1.729,5.185-4.416,6.528-7.681
					c3.072-8.063-1.151-17.088-9.408-19.968c-7.68-2.88-16.319,0.768-19.775,7.872c-2.304,1.344-4.225,3.456-5.376,5.952
					c-1.536-0.576-3.265-0.96-5.185-0.96c-7.872,0-14.208,6.336-14.208,14.016c0,2.688,0.769,5.376,2.304,7.488
					c-0.384,1.152-0.575,2.304-0.575,3.456c-6.721,1.536-11.713,7.296-11.713,14.399
					C2058.752,207.36,2065.472,214.08,2073.728,214.08"/>
			</g>
			<g>
				<defs>
					<path id="SVGID_17_" d="M2073.728,214.08c5.76,0,10.752-3.265,13.248-7.872c1.344,1.344,3.072,2.304,4.992,3.071
						c8.256,3.072,17.279-1.151,20.352-9.216c1.536-4.032,1.152-8.256-0.384-11.903c1.536-1.536,2.688-3.265,3.456-5.376
						c0.96-2.688,1.152-5.376,0.768-7.872c2.881-1.729,5.185-4.416,6.528-7.681c3.072-8.063-1.151-17.088-9.408-19.968
						c-7.68-2.88-16.319,0.768-19.775,7.872c-2.304,1.344-4.225,3.456-5.376,5.952c-1.536-0.576-3.265-0.96-5.185-0.96
						c-7.872,0-14.208,6.336-14.208,14.016c0,2.688,0.769,5.376,2.304,7.488c-0.384,1.152-0.575,2.304-0.575,3.456
						c-6.721,1.536-11.713,7.296-11.713,14.399C2058.752,207.36,2065.472,214.08,2073.728,214.08"/>
				</defs>
				<clipPath id="SVGID_18_">
					<use xlink:href="#SVGID_17_"  overflow="visible"/>
				</clipPath>
				<g clip-path="url(#SVGID_18_)">
					<g>
						<rect id="SVGID_7259_" x="-113.152" y="-2540.544" fill="#EAEAEA" width="6025.919" height="4502.783"/>
					</g>
				</g>
			</g>
		</g>
	</g>
</g>
</svg>
